<svg xmlns="http://www.w3.org/2000/svg" viewBox="0 0 96 96" fill="none">
  <path d="M47.8 7.5c-8.3 0-16.7 2.1-23 7.2-6.7 5.4-10.5 13.4-10.5 22.3 0 18 10 30.8 16 39.8 2.3 3.4 7.5 3.1 9.3-.5l5.4-10.8c1.2-2.5 4.8-2.5 6 0l5.4 10.8c1.8 3.6 7 3.9 9.3.5 6-9 16-21.8 16-39.8 0-8.9-3.8-16.9-10.5-22.3-6.3-5.1-14.7-7.2-23-7.2h-.4z" fill="#0ea5a8"/>
  <path d="M48 20.2c-3.2 0-6.2 1.6-8 4.2-1.9-2-4.5-3.3-7.5-3.3-5.7 0-10.2 4.6-10.2 10.2 0 13.4 12.8 22 25.7 32.1 12.9-10.1 25.7-18.7 25.7-32.1 0-5.6-4.5-10.2-10.2-10.2-3 0-5.6 1.3-7.5 3.3-1.8-2.6-4.8-4.2-8-4.2z" fill="#c4f1f9"/>
</svg>
